# xmcd
#
# Track frame offsets:
#	150
#	51373
#	101255
#	176768
#	222636
#	253253
#	278008
#
# Disc length: 4075 seconds
#
# Revision: 1
# Processed by: cddbd v1.4PL0 Copyright (c) Steve Scherf et al.
# Submitted via: audiograbber 1.80.04
#
DISCID=690fe907
DTITLE=grateful dead - 5-28-77 hartford disc 3
DYEAR=1900
DGENRE=
TTITLE0=playing in the band
TTITLE1=terrapin
TTITLE2=not fade away
TTITLE3=wharf rat
TTITLE4=playing in the band
TTITLE5=one more saturday night
TTITLE6=US Blues
EXTD=
EXTT0=
EXTT1=
EXTT2=
EXTT3=
EXTT4=
EXTT5=
EXTT6=
PLAYORDER=
